# xmcd
#
# Track frame offsets:
#   150
#   12130
#   27781
#   39813
#   51124
#   64881
#   76185
#   92346
#   105428
#   119040
#   134921
#   151499
#   166459
#   179962
#   194452
#   209061
#   222438
#   233836
#   249478
#
# Disc length: 3510 seconds
#
# Revision: 0
# Processed by: cddbd v1.5.1PL0 Copyright (c) Steve Scherf et al.
# Submitted via: Media_Universe 3.0
#
DISCID=100db413
DTITLE=George Strait - Strait From The Heart and Always Never The Same
DYEAR=1900
DGENRE=Country
TTITLE0=Fool Hearted Memory
TTITLE1=Only Thing I Have Left
TTITLE2=The Steal Of The Night
TTITLE3=I Can See Texas From Here
TTITLE4=Marina Del Ray
TTITLE5=Lover In Disguise
TTITLE6=Heartbroke
TTITLE7=Amarillo By Morning
TTITLE8=A Fire I Cant Put Out
TTITLE9=Meanwhile
TTITLE10=Write This Down
TTITLE11=Thats The Truth
TTITLE12=What Do You Say To That
TTITLE13=Peace Of Mind
TTITLE14=Thats Where I Wanna Take Our Love
TTITLE15=Always Never The Same
TTITLE16=One Of You
TTITLE17=I Look At You
TTITLE18=4 Minus 3 Equals Zero
EXTD=
EXTT0=
EXTT1=
EXTT2=
EXTT3=
EXTT4=
EXTT5=
EXTT6=
EXTT7=
EXTT8=
EXTT9=
EXTT10=
EXTT11=
EXTT12=
EXTT13=
EXTT14=
EXTT15=
EXTT16=
EXTT17=
EXTT18=
PLAYORDER=
